<svg width="12" height="16" viewBox="0 0 12 16" fill="none" xmlns="http://www.w3.org/2000/svg">
<g id="Union">
<path d="M9.33366 3.83333C9.33366 5.67415 7.84125 7.16667 6.00033 7.16667C4.1594 7.16667 2.66699 5.67415 2.66699 3.83333C2.66699 1.99251 4.1594 0.5 6.00033 0.5C7.84125 0.5 9.33366 1.99251 9.33366 3.83333Z" fill="#586A84"/>
<path d="M0.166992 13.8333C0.166992 10.6123 2.77869 8 6.00033 8C9.22196 8 11.8337 10.6123 11.8337 13.8333V14.6667C11.8337 15.1273 11.4605 15.5 11.0003 15.5H1.00033C0.768087 15.5 0.558024 15.404 0.40686 15.251C0.320597 15.1631 0.253459 15.0573 0.212463 14.9385C0.182963 14.8538 0.166992 14.7627 0.166992 14.6667V13.8333Z" fill="#586A84"/>
</g>
</svg>
