<svg width="16" height="18" viewBox="0 0 16 18" fill="none" xmlns="http://www.w3.org/2000/svg">
<path id="Subtract" fill-rule="evenodd" clip-rule="evenodd" d="M3.83248 4.83366V4.83374H2.33618C1.90353 4.83374 1.54284 5.16484 1.5059 5.59591L0.577324 16.4292C0.535621 16.9158 0.919296 17.3337 1.40761 17.3337H14.592C15.0803 17.3337 15.464 16.9158 15.4223 16.4292L14.4937 5.59591C14.4567 5.16484 14.0961 4.83374 13.6634 4.83374H12.1658V4.83366C12.1658 2.53247 10.3003 0.666992 7.99914 0.666992C5.69796 0.666992 3.83248 2.53247 3.83248 4.83366ZM5.49914 4.83366V4.83374H10.4991V4.83366C10.4991 3.45295 9.37986 2.33366 7.99914 2.33366C6.61843 2.33366 5.49914 3.45295 5.49914 4.83366ZM7.99786 11.5003C10.2816 11.5003 12.1361 9.66309 12.1642 7.38604C12.1653 7.36872 12.1658 7.35125 12.1658 7.33366C12.1658 6.87342 11.7927 6.50033 11.3325 6.50033C10.8722 6.50033 10.4992 6.87342 10.4992 7.33366V7.33374H10.4979C10.4978 8.71441 9.37854 9.83366 7.99786 9.83366C6.63071 9.83366 5.51988 8.73626 5.49818 7.37428C5.49883 7.36082 5.49915 7.34728 5.49915 7.33366C5.49915 6.87342 5.12606 6.50033 4.66582 6.50033C4.20558 6.50033 3.83248 6.87342 3.83248 7.33366V7.33374H3.83184V7.25942C3.83141 7.28412 3.83119 7.30886 3.83119 7.33366C3.83119 9.63485 5.69667 11.5003 7.99786 11.5003Z" fill="#586A84"/>
</svg>
