<svg width="18" height="14" viewBox="0 0 18 14" fill="none" xmlns="http://www.w3.org/2000/svg">
<path id="Union" fill-rule="evenodd" clip-rule="evenodd" d="M0.666992 1.16634C0.666992 0.706104 1.04009 0.333008 1.50033 0.333008H16.5003C16.9606 0.333008 17.3337 0.706104 17.3337 1.16634C17.3337 1.62658 16.9606 1.99967 16.5003 1.99967H1.50032C1.04009 1.99967 0.666992 1.62658 0.666992 1.16634ZM0.666992 6.99967C0.666992 6.53944 1.04009 6.16634 1.50033 6.16634H16.5003C16.9606 6.16634 17.3337 6.53944 17.3337 6.99967C17.3337 7.45991 16.9606 7.83301 16.5003 7.83301H1.50032C1.04009 7.83301 0.666992 7.45991 0.666992 6.99967ZM1.50033 11.9997C1.04009 11.9997 0.666992 12.3728 0.666992 12.833C0.666992 13.2932 1.04009 13.6663 1.50032 13.6663H16.5003C16.9606 13.6663 17.3337 13.2932 17.3337 12.833C17.3337 12.3728 16.9606 11.9997 16.5003 11.9997H1.50033Z" fill="#586A84"/>
</svg>
