<svg width="14" height="14" viewBox="0 0 14 14" fill="none" xmlns="http://www.w3.org/2000/svg">
<g id="Subtract">
<path d="M7.32543 9.62468C7.49943 9.60343 7.65852 9.56429 7.8027 9.50725C8.03503 9.41382 8.21685 9.28503 8.34816 9.12089C8.47947 8.95422 8.54639 8.75978 8.54892 8.53755C8.54639 8.33553 8.48705 8.16887 8.37089 8.03755C8.25472 7.90371 8.09185 7.7926 7.88225 7.70422C7.7187 7.63242 7.53309 7.56692 7.32543 7.50771V9.62468Z" fill="#7D8FA9"/>
<path d="M6.70422 6.0674V4.07365C6.54768 4.09482 6.40626 4.13203 6.27998 4.18528C6.07038 4.27366 5.91003 4.39361 5.79892 4.54513C5.68781 4.69664 5.63099 4.86962 5.62846 5.06407C5.62846 5.22568 5.66508 5.36584 5.73831 5.48452C5.81407 5.60321 5.91634 5.70422 6.04513 5.78755C6.17392 5.86836 6.31659 5.93654 6.47316 5.9921C6.54988 6.01932 6.6269 6.04442 6.70422 6.0674Z" fill="#7D8FA9"/>
<path fill-rule="evenodd" clip-rule="evenodd" d="M6.99967 13.6663C10.6816 13.6663 13.6663 10.6816 13.6663 6.99967C13.6663 3.31778 10.6816 0.333008 6.99967 0.333008C3.31778 0.333008 0.333008 3.31778 0.333008 6.99967C0.333008 10.6816 3.31778 13.6663 6.99967 13.6663ZM6.70422 10.8359V11.6966H7.32543V10.8357C7.81269 10.8083 8.23693 10.7152 8.59816 10.5565C9.03755 10.362 9.37341 10.0931 9.60573 9.74967C9.83806 9.40372 9.95422 9.00346 9.95422 8.54892C9.95422 8.21306 9.89109 7.92013 9.76482 7.67013C9.63856 7.42013 9.46685 7.20675 9.24967 7.02998C9.03503 6.85321 8.79134 6.70675 8.51861 6.59058C8.24841 6.47442 7.96685 6.38225 7.67392 6.31407L7.32543 6.22695V4.06924C7.61127 4.1033 7.85243 4.18996 8.04892 4.32922C8.31154 4.51356 8.46053 4.77114 8.49589 5.10195H9.84816C9.84058 4.66508 9.71811 4.27871 9.48073 3.94286C9.24336 3.60447 8.91634 3.34058 8.49967 3.15119C8.15538 2.99164 7.76397 2.89841 7.32543 2.8715V1.99967H6.70422V2.87711C6.29961 2.90994 5.92966 3.0013 5.59437 3.15119C5.16508 3.34058 4.82543 3.607 4.57543 3.95043C4.32796 4.29387 4.20422 4.69412 4.20422 5.15119C4.20422 5.70675 4.38856 6.15245 4.75725 6.48831C5.12846 6.82164 5.63351 7.07038 6.2724 7.23452L6.70422 7.34572V9.62759C6.52573 9.60754 6.35907 9.56869 6.20422 9.51104C5.96937 9.42265 5.77871 9.28882 5.63225 9.10952C5.48579 8.93023 5.40245 8.70548 5.38225 8.43528H3.99967C4.01988 8.95043 4.15371 9.3873 4.40119 9.74589C4.65119 10.1045 4.99715 10.3772 5.43907 10.5641C5.80644 10.7185 6.22815 10.8092 6.70422 10.8359Z" fill="#7D8FA9"/>
</g>
</svg>
