<svg width="14" height="14" viewBox="0 0 14 14" fill="none" xmlns="http://www.w3.org/2000/svg">
<g id="Subtract">
<path d="M7.49979 10.1757C6.95439 10.9802 6.38798 11.6449 5.84719 12.1384C5.34505 12.5967 4.91595 12.8606 4.59562 12.9799C4.50998 13.0118 4.43943 13.0307 4.38234 13.0414C4.3357 13.0505 4.29851 13.054 4.26998 13.0544C4.21205 13.0554 4.18935 13.0455 4.18286 13.0425C4.17991 13.0411 4.17342 13.0381 4.16419 13.0309C4.15318 13.0222 4.13764 13.0077 4.11775 12.9834C4.07795 12.9339 4.02097 12.842 3.96545 12.6861C3.85092 12.364 3.77731 11.8656 3.80564 11.1864C3.83604 10.4549 3.98116 9.59374 4.24688 8.65881L7.49979 10.1757Z" fill="#7D8FA9"/>
<path d="M8.72236 10.7458C7.90181 11.9909 7.00648 12.9828 6.15142 13.6149C8.06036 13.86 9.9832 13.2603 11.4127 12.0003L8.72236 10.7458Z" fill="#7D8FA9"/>
<path d="M2.47898 11.9024C1.0642 10.5976 0.287598 8.73917 0.333997 6.8342L3.0243 8.08871C2.59791 9.51765 2.41358 10.8411 2.47898 11.9024Z" fill="#7D8FA9"/>
<path d="M4.66905 7.3845L8.2046 9.03315C8.4154 8.65734 8.61923 8.26104 8.81293 7.84565C9.00663 7.43026 9.17919 7.01938 9.33158 6.61633L5.79603 4.96768C5.58523 5.34349 5.3814 5.73979 5.1877 6.15518C4.994 6.57057 4.82144 6.98145 4.66905 7.3845Z" fill="#7D8FA9"/>
<path d="M4.58467 4.40281C4.37399 4.78299 4.17134 5.17984 3.97929 5.59169C3.78724 6.00354 3.6135 6.41387 3.45769 6.81964L0.51573 5.44778C0.618513 5.02016 0.765387 4.59658 0.958262 4.18296C1.15114 3.76934 1.38121 3.38456 1.64271 3.03096L4.58467 4.40281Z" fill="#7D8FA9"/>
<path d="M6.50084 3.82517L9.75375 5.34203C10.0195 4.40709 10.1646 3.54594 10.195 2.81447C10.2233 2.1352 10.1497 1.63682 10.0352 1.31476C9.97966 1.15885 9.92268 1.06691 9.88288 1.01746C9.86842 0.999943 9.85614 0.987754 9.84629 0.978848C9.83107 0.965283 9.8216 0.960154 9.81777 0.958365C9.81128 0.955339 9.78858 0.945473 9.73065 0.946474C9.66719 0.94777 9.56013 0.96322 9.40501 1.0209C9.08468 1.14019 8.65558 1.40415 8.15344 1.86248C7.61264 2.35595 7.04624 3.02065 6.50084 3.82517Z" fill="#7D8FA9"/>
<path d="M7.84921 0.385934C6.99414 1.01804 6.09881 2.00993 5.27827 3.25507L2.58796 2.00056C4.01742 0.74053 5.94027 0.140856 7.84921 0.385934Z" fill="#7D8FA9"/>
<path d="M11.5216 2.09842C11.587 3.15974 11.4027 4.48318 10.9763 5.91212L13.6666 7.16663C13.713 5.26167 12.9364 3.40322 11.5216 2.09842Z" fill="#7D8FA9"/>
<path d="M10.5429 7.1812L13.4849 8.55306C13.3821 8.98067 13.2352 9.40425 13.0424 9.81787C12.8495 10.2315 12.6194 10.6163 12.3579 10.9699L9.41596 9.59802C9.62664 9.21784 9.82929 8.821 10.0213 8.40915C10.2134 7.99729 10.3871 7.58696 10.5429 7.1812Z" fill="#7D8FA9"/>
</g>
</svg>
