<svg width="18" height="18" viewBox="0 0 18 18" fill="none" xmlns="http://www.w3.org/2000/svg">
<g id="in">
<path d="M4.25112 5.38314V17.3337H1.05916V5.38314H4.25112ZM0.860352 2.26849C0.860352 1.80461 1.02234 1.42172 1.34632 1.11983C1.67031 0.817938 2.10474 0.666992 2.64962 0.666992C3.18713 0.666992 3.61788 0.817938 3.94186 1.11983C4.27321 1.42172 4.43888 1.80461 4.43888 2.26849C4.43888 2.73238 4.27321 3.11527 3.94186 3.41716C3.61788 3.71905 3.18713 3.87 2.64962 3.87C2.10474 3.87 1.67031 3.71905 1.34632 3.41716C1.02234 3.11527 0.860352 2.73238 0.860352 2.26849Z" fill="#7D8FA9"/>
<path d="M9.99444 7.9345V17.3337H6.81352V5.38314H9.79563L9.99444 7.9345ZM9.53055 10.9387H8.66906C8.66906 10.0551 8.78319 9.25988 9.01145 8.55301C9.23971 7.83878 9.56001 7.23131 9.97235 6.73061C10.3847 6.22255 10.8743 5.83598 11.4413 5.5709C12.0156 5.29846 12.6562 5.16224 13.3631 5.16224C13.9227 5.16224 14.4345 5.24324 14.8983 5.40523C15.3622 5.56722 15.7598 5.82493 16.0912 6.17837C16.4299 6.5318 16.6876 6.99937 16.8643 7.58106C17.0484 8.16276 17.1404 8.87331 17.1404 9.71272V17.3337H13.9374V9.70167C13.9374 9.17152 13.8638 8.75918 13.7165 8.46465C13.5693 8.17012 13.3521 7.96395 13.0649 7.84614C12.7851 7.72096 12.439 7.65838 12.0267 7.65838C11.5996 7.65838 11.2278 7.74305 10.9112 7.91241C10.6019 8.08176 10.3442 8.31739 10.138 8.61928C9.93921 8.91381 9.78827 9.25988 9.68518 9.65749C9.5821 10.0551 9.53055 10.4822 9.53055 10.9387Z" fill="#7D8FA9"/>
</g>
</svg>
