<svg width="18" height="18" viewBox="0 0 18 18" fill="none" xmlns="http://www.w3.org/2000/svg">
<path id="Union" fill-rule="evenodd" clip-rule="evenodd" d="M12.3337 2.33366H5.66699C3.82604 2.33366 2.33366 3.82604 2.33366 5.66699V12.3337C2.33366 14.1746 3.82604 15.667 5.66699 15.667H12.3337C14.1746 15.667 15.667 14.1746 15.667 12.3337V5.66699C15.667 3.82604 14.1746 2.33366 12.3337 2.33366ZM5.66699 0.666992C2.90557 0.666992 0.666992 2.90557 0.666992 5.66699V12.3337C0.666992 15.0951 2.90557 17.3337 5.66699 17.3337H12.3337C15.0951 17.3337 17.3337 15.0951 17.3337 12.3337V5.66699C17.3337 2.90557 15.0951 0.666992 12.3337 0.666992H5.66699ZM9.00033 11.5003C10.381 11.5003 11.5003 10.381 11.5003 9.00033C11.5003 7.61961 10.381 6.50033 9.00033 6.50033C7.61961 6.50033 6.50033 7.61961 6.50033 9.00033C6.50033 10.381 7.61961 11.5003 9.00033 11.5003ZM9.00033 13.167C11.3015 13.167 13.167 11.3015 13.167 9.00033C13.167 6.69914 11.3015 4.83366 9.00033 4.83366C6.69914 4.83366 4.83366 6.69914 4.83366 9.00033C4.83366 11.3015 6.69914 13.167 9.00033 13.167ZM13.1667 6.00041C13.811 6.00041 14.3333 5.47807 14.3333 4.83374C14.3333 4.18941 13.811 3.66707 13.1667 3.66707C12.5223 3.66707 12 4.18941 12 4.83374C12 5.47807 12.5223 6.00041 13.1667 6.00041Z" fill="#7D8FA9"/>
</svg>
