<svg width="20" height="20" viewBox="0 0 20 20" fill="none" xmlns="http://www.w3.org/2000/svg">
<path id="Union" fill-rule="evenodd" clip-rule="evenodd" d="M13.8098 15.223C10.6712 17.6655 6.13243 17.4452 3.24738 14.5601C0.1234 11.4361 0.123141 6.37063 3.24738 3.2464C6.37161 0.122164 11.4371 0.122424 14.5611 3.2464C17.4461 6.13145 17.6665 10.6702 15.224 13.8088L18.8037 17.3885C18.9916 17.5764 19.0897 17.8207 19.096 18.0658C19.1038 18.3315 19.0066 18.5999 18.8037 18.8027C18.4132 19.1932 17.7804 19.1936 17.3895 18.8027L13.8098 15.223ZM13.1469 4.66061C15.4905 7.00428 15.49 10.8027 13.1469 13.1459C10.8037 15.489 7.00526 15.4896 4.66159 13.1459C2.31792 10.8022 2.31843 7.00377 4.66159 4.66061C7.00474 2.31746 10.8032 2.31694 13.1469 4.66061Z" fill="white"/>
</svg>
