<svg width="14" height="14" viewBox="0 0 14 14" fill="none" xmlns="http://www.w3.org/2000/svg">
<path id="Subtract" fill-rule="evenodd" clip-rule="evenodd" d="M5.80287 0.871302C5.6502 0.642174 5.37135 0.527394 5.10731 0.605442C4.08386 0.907967 3.16295 1.44919 2.40928 2.16523C2.20957 2.35497 2.16939 2.65395 2.29152 2.90088L2.71419 3.75546L2.04753 4.91041L1.09409 4.97205C0.819117 4.98983 0.580246 5.17425 0.516089 5.44223C0.396405 5.94214 0.333008 6.46346 0.333008 7.00025C0.333008 7.53678 0.396296 8.05863 0.515807 8.55807C0.579959 8.82617 0.819076 9.01051 1.09418 9.02804L2.04753 9.08879L2.71419 10.2437L2.29117 11.0997C2.16915 11.3466 2.20935 11.6455 2.40901 11.8352C3.16272 12.5513 4.08373 13.0925 5.10731 13.3951C5.37135 13.4731 5.6502 13.3583 5.80287 13.1292L6.33301 12.3336H7.66634L8.19648 13.1292C8.34915 13.3583 8.628 13.4731 8.89204 13.3951C9.91561 13.0925 10.8366 12.5513 11.5903 11.8352C11.79 11.6455 11.8302 11.3466 11.7082 11.0997L11.2852 10.2437L11.9518 9.08879L12.9052 9.02804C13.1803 9.01051 13.4194 8.82617 13.4835 8.55807C13.6031 8.05863 13.6663 7.53678 13.6663 7.00025C13.6663 6.46346 13.6029 5.94214 13.4833 5.44223C13.4191 5.17425 13.1802 4.98983 12.9053 4.97205L11.9518 4.91041L11.2852 3.75546L11.7078 2.90088C11.83 2.65395 11.7898 2.35497 11.5901 2.16523C10.8364 1.44919 9.91549 0.907968 8.89204 0.605442C8.628 0.527394 8.34915 0.642174 8.19647 0.871302L7.66634 1.66692H6.33301L5.80287 0.871302ZM6.99967 9.66692C8.47243 9.66692 9.66634 8.47301 9.66634 7.00025C9.66634 5.52749 8.47243 4.33358 6.99967 4.33358C5.52691 4.33358 4.33301 5.52749 4.33301 7.00025C4.33301 8.47301 5.52691 9.66692 6.99967 9.66692Z" fill="#7D8FA9"/>
</svg>
