<svg width="14" height="14" viewBox="0 0 14 14" fill="none" xmlns="http://www.w3.org/2000/svg">
<g id="Union">
<path d="M11.8525 0.333008C12.1394 0.333008 12.3942 0.516602 12.4849 0.788818L13.6321 4.23039C13.6548 4.29834 13.6677 4.36971 13.662 4.44116C13.607 5.12695 13.0329 5.66634 12.333 5.66634C11.5966 5.66634 10.9997 5.06942 10.9997 4.33301C10.9997 5.06942 10.4027 5.66634 9.66632 5.66634C8.92995 5.66634 8.33298 5.06942 8.33298 4.33301C8.33298 5.06942 7.73602 5.66634 6.99965 5.66634C6.26328 5.66634 5.66632 5.06942 5.66632 4.33301C5.66632 5.06942 5.06935 5.66634 4.33298 5.66634C3.59662 5.66634 2.99965 5.06942 2.99965 4.33301C2.99965 5.06942 2.40269 5.66634 1.66632 5.66634C0.966367 5.66634 0.392352 5.12695 0.337298 4.44116C0.33331 4.3916 0.338315 4.34212 0.349342 4.29378C0.354225 4.27238 0.360247 4.25122 0.367205 4.23039L1.51438 0.788818C1.60512 0.516602 1.85988 0.333008 2.14683 0.333008H11.8525Z" fill="#7D8FA9"/>
<path d="M3.00002 8.33284C3.00002 8.70103 3.29849 8.99951 3.66668 8.99951H10.3334C10.7015 8.99951 11 8.70103 11 8.33284V6.6429C11.3922 6.86971 11.8474 6.99943 12.333 6.99943C12.5633 6.99943 12.7868 6.9703 13 6.91545V12.9994C13 13.3676 12.7015 13.6661 12.3334 13.6661H1.66668C1.29849 13.6661 1.00002 13.3676 1.00002 12.9994V6.91561C1.21295 6.97038 1.43622 6.99943 1.66632 6.99943C2.15204 6.99943 2.60776 6.86979 3.00002 6.6429V8.33284Z" fill="#7D8FA9"/>
</g>
</svg>
