<svg width="18" height="14" viewBox="0 0 18 14" fill="none" xmlns="http://www.w3.org/2000/svg">
<path id="Vector" d="M15.6274 3.6142C15.6375 3.76051 15.6375 3.90683 15.6375 4.0545C15.6375 8.55389 12.1979 13.7431 5.90838 13.7431V13.7404C4.05043 13.7431 2.23108 13.2131 0.666992 12.2138C0.937153 12.2462 1.20867 12.2624 1.48086 12.263C3.02057 12.2644 4.51627 11.7499 5.72759 10.8026C4.26439 10.7749 2.9813 9.82489 2.53306 8.43792C3.04562 8.53636 3.57376 8.51614 4.07684 8.37926C2.4816 8.05831 1.33393 6.66257 1.33393 5.04163V4.99847C1.80925 5.26211 2.34145 5.40843 2.88583 5.42461C1.38336 4.42467 0.920225 2.43423 1.82753 0.878015C3.5636 3.00533 6.12505 4.29858 8.87472 4.43546C8.59915 3.25279 8.97561 2.01348 9.86396 1.18211C11.2412 -0.107092 13.4072 -0.041014 14.7018 1.32977C15.4676 1.17941 16.2016 0.899591 16.8732 0.503121C16.618 1.29134 16.0837 1.96089 15.3701 2.38635C16.0479 2.30679 16.7101 2.12609 17.3337 1.85031C16.8746 2.53537 16.2964 3.1321 15.6274 3.6142Z" fill="#7D8FA9"/>
</svg>
